<svg xmlns="http://www.w3.org/2000/svg" style="display: none;">
  <!-- icon folder  -->
  <symbol id="folder" viewBox="0 0 24 24">
    <path d="m20,4h-8.59l-1.41-1.41c-.38-.38-.88-.59-1.41-.59h-4.59c-1.1,0-2,.9-2,2v14c0,1.1.9,2,2,2h16c1.1,0,2-.9,2-2V6c0-1.1-.9-2-2-2Zm0,14H4s0-12,0-12h16v12Z"/>
    <path d="M9.79 8.29 6.09 12 9.79 15.71 11.21 14.29 8.91 12 11.21 9.71 9.79 8.29z"/>
    <path d="M14.21 15.71 17.91 12 14.21 8.29 12.79 9.71 15.09 12 12.79 14.29 14.21 15.71z"/>
  </symbol>
  <!-- icon folder solid -->
  <symbol id="folder-solid" viewBox="0 0 24 24">
    <path d="M20 4h-8.59L10 2.59C9.63 2.22 9.11 2 8.59 2H4c-1.1 0-2 .9-2 2v14c0 1.1.9 2 2 2h16c1.1 0 2-.9 2-2V6c0-1.1-.9-2-2-2m-8.79 10.29L9.8 15.7l-3.71-3.71L9.8 8.28l1.41 1.41-2.29 2.29 2.29 2.29Zm3 1.41-1.41-1.41L15.09 12 12.8 9.71l1.41-1.41 3.71 3.71-3.71 3.71Z"/>
  </symbol>
  <!-- icon contact -->
  <symbol id="contact" viewBox="0 0 24 24">
    <path d="m19,2H5c-.55,0-1,.45-1,1v4h-2v2h2v2h-2v2h2v2h-2v2h2v4c0,.55.45,1,1,1h14c1.1,0,2-.9,2-2V4c0-1.1-.9-2-2-2Zm0,18H6V4h13v16Z"/>
    <path d="M12.5 7A2.5 2.5 0 1 0 12.5 12 2.5 2.5 0 1 0 12.5 7z"/>
    <path d="m17,16c0-1.66-1.34-3-3-3h-3c-1.66,0-3,1.34-3,3v1h9v-1Z"/>
  </symbol>
  <!-- icon contact solid -->
  <symbol id="contact-solid" viewBox="0 0 24 24">
    <path d="m19,2H5c-.55,0-1,.45-1,1v4h-2v2h2v2h-2v2h2v2h-2v2h2v4c0,.55.45,1,1,1h14c1.1,0,2-.9,2-2V4c0-1.1-.9-2-2-2Zm-6.5,5c1.43,0,2.5,1.07,2.5,2.5s-1.07,2.5-2.5,2.5-2.5-1.07-2.5-2.5,1.07-2.5,2.5-2.5Zm4.5,10h-9v-1c0-1.66,1.34-3,3-3h3c1.66,0,3,1.34,3,3v1Z"/>
  </symbol>
  <!-- icon home solid -->
  <symbol id="home-solid" viewBox="0 0 24 24">
    <path d="M3 13h1v7c0 1.1.9 2 2 2h12c1.1 0 2-.9 2-2v-7h1c.4 0 .77-.24.92-.62.16-.37.07-.8-.22-1.09l-8.99-9a.996.996 0 0 0-1.41 0l-9.01 9c-.29.29-.37.72-.22 1.09s.52.62.92.62Z"/>
  </symbol>
  <!-- icon home -->
  <symbol id="home" viewBox="0 0 24 24">
    <path d="M3 13h1v7c0 1.1.9 2 2 2h12c1.1 0 2-.9 2-2v-7h1c.4 0 .77-.24.92-.62.15-.37.07-.8-.22-1.09l-8.99-9a.996.996 0 0 0-1.41 0l-9.01 9c-.29.29-.37.72-.22 1.09s.52.62.92.62Zm9-8.59 6 6V20H6v-9.59z"/>
  </symbol>
  <!-- icon user solid -->
  <symbol id="user-solid" viewBox="0 0 24 24">
    <path d="M12 2a5 5 0 1 0 0 10 5 5 0 1 0 0-10M4 22h16c.55 0 1-.45 1-1v-1c0-3.86-3.14-7-7-7h-4c-3.86 0-7 3.14-7 7v1c0 .55.45 1 1 1"/>
  </symbol>
  <!-- icon user -->
  <symbol id="user" viewBox="0 0 24 24" >
    <path d="M12 12c2.76 0 5-2.24 5-5s-2.24-5-5-5-5 2.24-5 5 2.24 5 5 5m0-8c1.65 0 3 1.35 3 3s-1.35 3-3 3-3-1.35-3-3 1.35-3 3-3M4 22h16c.55 0 1-.45 1-1v-1c0-3.86-3.14-7-7-7h-4c-3.86 0-7 3.14-7 7v1c0 .55.45 1 1 1m6-7h4c2.76 0 5 2.24 5 5H5c0-2.76 2.24-5 5-5"/>
  </symbol>
  <!-- icon road -->
  <symbol id="road" viewBox="0 0 14 14">
    <g fill="none" stroke="currentColor" stroke-linecap="round" stroke-linejoin="round">
      <path d="M7 11.643h6.5m-1.857-1.857l1.857 1.857l-1.857 1.857M3.286 1.893a1.393 1.393 0 1 0 2.786 0a1.393 1.393 0 1 0-2.786 0M7 6.536a1.393 1.393 0 1 0 2.786 0a1.393 1.393 0 1 0-2.786 0m-2.786 5.107a1.393 1.393 0 1 0 2.786 0a1.393 1.393 0 1 0-2.786 0"/>
      <path d="M7 6.536H3.054a2.554 2.554 0 0 0 0 5.107h1.16m5.572-5.107h1.393a2.321 2.321 0 0 0 0-4.643H6.07m-2.784 0H.5"/>
    </g>
  </symbol>
  <!-- icon road solid -->
  <symbol id="road-solid" viewBox="0 0 14 14">
    <path fill="currentColor" fill-rule="evenodd" d="M6.233 3a2 2 0 0 1-3.465 0H1a1 1 0 0 1 0-2h1.768a2 2 0 0 1 3.465 0h4.517a3.25 3.25 0 0 1 0 6.5h-.517a2 2 0 0 1-3.466 0H3.5a1.5 1.5 0 1 0 0 3h.268a2 2 0 0 1 3.464 0H11v-1a.5.5 0 0 1 .854-.354l2 2a.5.5 0 0 1 0 .707l-2 2A.5.5 0 0 1 11 13.5v-1H7.233a2 2 0 0 1-3.466 0H3.5a3.5 3.5 0 1 1 0-7h3.268a2 2 0 0 1 3.464 0h.518a1.25 1.25 0 1 0 0-2.5z" clip-rule="evenodd"/>
  </symbol>
  <!-- icon sword -->
  <symbol id="sword" viewBox="0 0 24 24">
    <path d="m21,2h-5c-.3,0-.58.13-.77.37L6.93,12.51l-1.93-1.93v-2.59h-2v3c0,.27.11.52.29.71l3,3,.09.09-4.79,4.79,2.83,2.83,4.79-4.79.09.09,3,3c.19.19.44.29.71.29h3v-2h-2.59l-1.93-1.93,10.14-8.3c.23-.19.37-.47.37-.77V3c0-.55-.45-1-1-1Zm-1,5.53l-9.93,8.13-1.72-1.72,8.13-9.93h3.53v3.53Z"/>
  </symbol>
  <!-- icon sword solid -->
  <symbol id="sword-solid" viewBox="0 0 24 24" >
    <path d="m9.21,17.62l3.09,3.09c.19.19.44.29.71.29h3v-2h-2.59L5,10.59v-2.59h-2v3c0,.27.11.52.29.71l3.09,3.09-4.79,4.79,2.83,2.83,4.79-4.79Z"/>
    <path d="m21,2h-5c-.3,0-.58.13-.77.37l-7.66,9.37,4.7,4.7,9.37-7.66c.23-.19.37-.47.37-.77V3c0-.55-.45-1-1-1Z"/>
  </symbol>
  <!-- icon migang isotipo -->
  <symbol id="migang-isotipo" viewBox="0 0 914.83 714.31">
    <path fill="#373435" d="M457.34 714.31l-43.36-43.36 426.87-426.87 43.36 43.35-426.87 426.87zm170.05-683.68l21.68-21.68c11.92-11.92 31.43-11.92 43.35 0l213.46 213.46c11.92 11.92 11.92 31.43 0 43.35l-21.68 21.68-256.82-256.82z"/>
    <path fill="#373435" d="M563.97 180.75l43.35-43.36 158.89 158.89-44.75 16.61c-11.53 4.28-23.74 1.61-32.43-7.08l-125.06-125.06zm0 0l-21.68-21.68c-11.92-11.92-11.92-31.43 0-43.35l73.86-73.86 43.36 43.36-95.54 95.54z"/>
    <path fill="#373435" d="M659.95 401.38l-63.43 7c-9.59 1.06-18.28-1.99-25.1-8.82l-315.55-315.54 60.95-8.5c9.86-1.37 18.94 1.67 25.98 8.71l317.16 317.15z"/>
    <path fill="#373435" d="M445.93 616.21l-36.81 19.35c-12.11 6.37-26.36 4.2-36.03-5.47l-364.15-364.15c-11.92-11.92-11.92-31.43 0-43.35l21.68-21.68 43.36 43.36-43.36-43.36 191.87-191.87c11.92-11.93 31.43-11.93 43.35 0l21.68 21.68-213.55 213.55 371.95 371.95z"/>
    <path fill="#373435" d="M350.86 307.6l43.36 43.36-73.86 73.86c-11.92 11.92-31.43 11.92-43.35 0l-21.68-21.68 95.54-95.54zm0 0l-43.35 43.36-158.88-158.88 56.41-11.07c10.36-2.03 20.19.96 27.65 8.43l118.18 118.18z"/>
  </symbol>
  <!-- icon migang logotipo -->
  <symbol id="migang-logotipo" viewBox="0 0 756.14 184.1">
    <path d="M442.08 81.35c-1.4,-3.71 -3.74,-6.18 -7.1,-7.4 -3.32,-1.21 -7.36,-1.81 -12.11,-1.81l-22.73 0c-8.15,0 -15.14,-4.31 -18.8,-11.59l-6.52 -12.97 58.12 0c11.37,0 20.16,3.15 26.37,9.44 6.21,6.29 9.48,14.4 9.83,24.32l0 58.3 -77.78 0c-4.81,0 -9.23,-1.45 -13.27,-4.33 -4.01,-2.91 -7.1,-6.74 -9.27,-11.49 -1.9,-4.19 -2.85,-8.61 -2.85,-13.31 0,-4.72 0.95,-9.15 2.85,-13.33 2.17,-4.75 5.26,-8.58 9.27,-11.46 4.04,-2.91 8.46,-4.36 13.27,-4.36l44.77 0 0.1 2.7c0.22,5.93 -1.76,11.11 -5.87,15.38 -4.12,4.27 -9.22,6.44 -15.15,6.44l-19.05 0c-1.28,0 -2.29,0.44 -3,1.31 -0.71,0.86 -1.1,1.99 -1.1,3.33 0,1.31 0.39,2.44 1.1,3.3 0.71,0.86 1.72,1.31 3,1.31l46.98 0 -1.04 -33.76z"/>
    <path d="M216.16 91.35l0 -28.09c0,-6.74 1.01,-12.98 3.03,-18.77 2.05,-5.76 5.02,-10.87 8.97,-15.36 3.95,-4.45 9.09,-7.96 15.44,-10.48 6.36,-2.52 13.6,-3.77 21.71,-3.77l75.26 0 -6.53 13.01c-3.66,7.29 -10.65,11.61 -18.81,11.61l-37.74 0c-2.61,0 -4.93,0.06 -6.98,0.21 -2.08,0.15 -4.36,0.45 -6.89,0.92 -2.53,0.48 -4.75,1.1 -6.68,1.87 -1.96,0.77 -3.89,1.87 -5.79,3.3 -1.93,1.42 -3.51,3.09 -4.75,5.02 -1.25,1.9 -2.26,4.28 -3,7.1 -0.74,2.79 -1.13,5.97 -1.13,9.51l0 19.75c0,3.53 0.39,6.71 1.13,9.53 0.74,2.82 1.75,5.2 3,7.1 1.25,1.9 2.82,3.59 4.75,4.99 1.9,1.43 3.83,2.53 5.79,3.33 1.93,0.77 4.15,1.4 6.68,1.87 2.52,0.44 4.81,0.77 6.89,0.89 2.05,0.15 4.37,0.24 6.98,0.24l31.15 0 -6.45 12.9c-3.66,7.31 -10.65,11.63 -18.83,11.63l-18.06 0c-8.11,0 -15.35,-1.25 -21.71,-3.77 -6.36,-2.53 -11.49,-6.03 -15.44,-10.46 -3.95,-4.43 -6.92,-9.53 -8.97,-15.33 -2.02,-5.76 -3.03,-12 -3.03,-18.74zm43.24 -1.84l6.45 -12.9c3.65,-7.31 10.65,-11.63 18.82,-11.63l56.96 0 0 53.61c0,11.59 -9.46,21.05 -21.05,21.05l-5.06 0 0 -50.13 -56.13 0z"/>
    <path d="M691.34 115.11c-2.13,0 -4.04,-0.09 -5.67,-0.27 -1.6,-0.18 -3.42,-0.57 -5.38,-1.19 -1.99,-0.59 -3.59,-1.46 -4.84,-2.56 -1.25,-1.1 -2.29,-2.64 -3.18,-4.66 -0.86,-1.99 -1.31,-4.4 -1.31,-7.16l0 -11.23c0,-2.79 0.45,-5.2 1.31,-7.22 0.89,-2.05 1.93,-3.62 3.18,-4.72 1.25,-1.1 2.85,-1.96 4.84,-2.55 1.96,-0.63 3.77,-1.01 5.38,-1.19 1.63,-0.18 3.54,-0.24 5.67,-0.24l18.44 0c2.14,0 4.04,0.06 5.64,0.24 1.63,0.18 3.42,0.59 5.38,1.22 1.93,0.65 3.53,1.51 4.81,2.61 1.28,1.1 2.35,2.67 3.18,4.66 0.83,1.99 1.28,4.39 1.28,7.19 0,12.03 1.57,55.97 -1.28,62.84 -0.84,2.02 -1.9,3.56 -3.18,4.66 -1.28,1.1 -2.88,1.96 -4.81,2.61 -1.96,0.62 -3.74,1.04 -5.38,1.22 -1.6,0.18 -3.5,0.27 -5.64,0.27l-23.08 0c-8.14,0 -15.11,4.29 -18.78,11.55l-6.52 12.89 58.47 0c11.7,0 20.7,-3.35 26.94,-10.04 6.24,-6.71 9.33,-15.24 9.33,-25.54l0 -65.25c0,-4.99 -0.74,-9.62 -2.26,-13.9 -1.49,-4.25 -3.71,-8.02 -6.65,-11.32 -2.91,-3.27 -6.71,-5.82 -11.4,-7.69 -4.66,-1.84 -9.98,-2.79 -15.95,-2.79l-37.95 0c-5.97,0 -11.32,0.95 -16.1,2.79 -4.75,1.87 -8.64,4.43 -11.64,7.69 -3.03,3.3 -5.32,7.07 -6.89,11.37 -1.54,4.28 -2.35,8.91 -2.35,13.84l0 20.7c0,4.99 0.77,9.62 2.29,13.87 1.48,4.28 3.71,8.05 6.65,11.32 2.91,3.27 6.71,5.85 11.37,7.69 4.69,1.87 10.01,2.79 15.98,2.79l20.71 0c11.59,0 21.05,-9.45 21.05,-21.05l0 -3.49 -31.66 0z"/>
    <path d="M5.61 13.73l-5.52 -0.15 -0.09 104.99c-0.01,11.6 9.45,21.06 21.05,21.06l5.04 0 0 -104.87c0,-11.4 -9.09,-20.74 -20.48,-21.04z"/>
    <path d="M128.66 13.73l5.52 -0.15 0.09 104.99c0.01,11.6 -9.45,21.06 -21.05,21.06l-5.04 0 -0.01 -104.87c0,-11.4 9.09,-20.74 20.48,-21.04z"/>
    <path d="M66.66 139.64l-32.81 -49.93c-2.36,-3.59 -3.46,-7.27 -3.46,-11.56l0 -39.97 36.27 55.19 36.27 -55.19 0 39.97c0,4.29 -1.1,7.97 -3.46,11.56l-32.81 49.93z"/>
    <path d="M191.21 18l-14.45 14.31c-0.82,0.81 -2.14,0.81 -2.96,0.01 -4.86,-4.77 -9.71,-9.54 -14.56,-14.31 -0.42,-0.41 -0.63,-0.91 -0.63,-1.5 -0.01,-0.59 0.21,-1.09 0.62,-1.5l14.57 -14.4c0.82,-0.81 2.15,-0.81 2.97,0.01 4.81,4.8 9.64,9.6 14.46,14.39 0.41,0.41 0.62,0.91 0.62,1.5 0,0.58 -0.21,1.08 -0.62,1.49z"/>
    <path d="M162.21 139.64l4.97 0c11.59,0 21.05,-9.45 21.05,-21.05l0 -71.23 -4.97 0c-11.59,0 -21.05,9.45 -21.05,21.05l0 71.23z"/>
    <path d="M494.74 13.59l-1.28 0 0 101.21c0,13.69 11.16,24.85 24.85,24.85l1.28 0 0 -101.21c0,-13.69 -11.16,-24.85 -24.85,-24.85z"/>
    <path d="M619.33 13.59l1.28 0 0 101.21c0,13.69 -11.16,24.85 -24.85,24.85l-1.28 0 0 -101.21c0,-13.69 11.16,-24.85 24.85,-24.85z"/>
    <rect transform="matrix(1.41453E-14 -1.35666 0.536346 0.527202 523.228 72.8113)" width="26.12" height="126.05"/>
  </symbol>
  <!-- icon migang imagotipo -->
  <symbol id="migang-imagotipo" viewBox="0 0 914.83 966.26">
    <path fill="#373435" d="M457.34 714.31l-43.36 -43.36 426.87 -426.87 43.36 43.35 -426.87 426.87zm170.05 -683.68l21.68 -21.68c11.92,-11.92 31.43,-11.92 43.35,0l213.46 213.46c11.92,11.92 11.92,31.43 0,43.35l-21.68 21.68 -256.82 -256.82z"/>
    <path fill="#373435" d="M563.97 180.75l43.35 -43.36 158.89 158.89 -44.75 16.61c-11.53,4.28 -23.74,1.61 -32.43,-7.08l-125.06 -125.06zm0 0l-21.68 -21.68c-11.92,-11.92 -11.92,-31.43 0,-43.35l73.86 -73.86 43.36 43.36 -95.54 95.54z"/>
    <path fill="#373435" d="M659.95 401.38l-63.43 7c-9.59,1.06 -18.28,-1.99 -25.1,-8.82l-315.55 -315.54 60.95 -8.5c9.86,-1.37 18.94,1.67 25.98,8.71l317.16 317.15z"/>
    <path fill="#373435" d="M445.93 616.21l-36.81 19.35c-12.11,6.37 -26.36,4.2 -36.03,-5.47l-364.15 -364.15c-11.92,-11.92 -11.92,-31.43 0,-43.35l21.68 -21.68 43.36 43.36 -43.36 -43.36 191.87 -191.87c11.92,-11.93 31.43,-11.93 43.35,0l21.68 21.68 -213.55 213.55 371.95 371.95z"/>
    <path fill="#373435" d="M350.86 307.6l43.36 43.36 -73.86 73.86c-11.92,11.92 -31.43,11.92 -43.35,0l-21.68 -21.68 95.54 -95.54zm0 0l-43.35 43.36 -158.88 -158.88 56.41 -11.07c10.36,-2.03 20.19,0.96 27.65,8.43l118.18 118.18z"/>
    <path fill="#373435" d="M528.69 851.86c-1.56,-4.13 -4.17,-6.88 -7.91,-8.23 -3.7,-1.35 -8.2,-2.02 -13.49,-2.02l-25.3 0c-9.08,0 -16.85,-4.79 -20.93,-12.9l-7.26 -14.44 64.71 0c12.66,0 22.45,3.5 29.36,10.52 6.91,7.01 10.55,16.04 10.95,27.08l0 64.9 -86.6 0c-5.35,0 -10.28,-1.62 -14.78,-4.83 -4.46,-3.24 -7.9,-7.51 -10.32,-12.8 -2.11,-4.66 -3.18,-9.59 -3.18,-14.82 0,-5.26 1.06,-10.18 3.18,-14.85 2.41,-5.29 5.85,-9.55 10.32,-12.76 4.5,-3.24 9.42,-4.86 14.78,-4.86l49.84 0 0.11 3.01c0.25,6.6 -1.96,12.37 -6.54,17.13 -4.58,4.76 -10.27,7.17 -16.87,7.17l-21.21 0c-1.42,0 -2.55,0.49 -3.34,1.45 -0.79,0.96 -1.22,2.22 -1.22,3.7 0,1.46 0.43,2.71 1.22,3.67 0.79,0.96 1.92,1.45 3.34,1.45l52.31 0 -1.16 -37.59z"/>
    <path fill="#373435" d="M277.16 863l0 -31.28c0,-7.51 1.12,-14.45 3.37,-20.9 2.28,-6.41 5.59,-12.1 9.99,-17.1 4.4,-4.96 10.12,-8.86 17.19,-11.67 7.08,-2.81 15.14,-4.2 24.17,-4.2l83.79 0 -7.27 14.49c-4.08,8.12 -11.86,12.92 -20.94,12.92l-42.01 0c-2.91,0 -5.49,0.06 -7.77,0.23 -2.31,0.17 -4.86,0.5 -7.67,1.02 -2.81,0.53 -5.29,1.22 -7.44,2.08 -2.19,0.86 -4.33,2.08 -6.45,3.67 -2.15,1.59 -3.9,3.44 -5.29,5.59 -1.39,2.11 -2.51,4.76 -3.34,7.9 -0.83,3.11 -1.26,6.65 -1.26,10.58l0 21.99c0,3.93 0.43,7.47 1.26,10.61 0.83,3.14 1.95,5.79 3.34,7.9 1.39,2.12 3.14,4 5.29,5.55 2.11,1.59 4.26,2.81 6.45,3.7 2.15,0.86 4.63,1.56 7.44,2.08 2.81,0.49 5.36,0.86 7.67,0.99 2.28,0.17 4.86,0.26 7.77,0.26l34.68 0 -7.18 14.36c-4.07,8.14 -11.86,12.95 -20.96,12.95l-20.1 0c-9.03,0 -17.09,-1.39 -24.17,-4.2 -7.08,-2.81 -12.8,-6.71 -17.19,-11.64 -4.4,-4.93 -7.71,-10.61 -9.99,-17.06 -2.25,-6.41 -3.37,-13.36 -3.37,-20.86zm48.14 -2.05l7.18 -14.36c4.07,-8.14 11.86,-12.95 20.96,-12.95l63.42 0 0 59.69c0,12.91 -10.53,23.43 -23.43,23.43l-5.63 0 0 -55.81 -62.49 0z"/>
    <path fill="#373435" d="M806.19 889.45c-2.38,0 -4.5,-0.1 -6.32,-0.3 -1.78,-0.2 -3.8,-0.63 -5.98,-1.32 -2.21,-0.66 -4,-1.62 -5.39,-2.85 -1.39,-1.22 -2.55,-2.94 -3.54,-5.19 -0.96,-2.22 -1.46,-4.9 -1.46,-7.97l0 -12.5c0,-3.11 0.5,-5.79 1.46,-8.03 0.99,-2.28 2.15,-4.04 3.54,-5.26 1.39,-1.22 3.18,-2.18 5.39,-2.84 2.18,-0.7 4.2,-1.12 5.98,-1.32 1.82,-0.2 3.94,-0.26 6.32,-0.26l20.53 0c2.38,0 4.5,0.07 6.28,0.26 1.82,0.2 3.8,0.66 5.98,1.36 2.15,0.73 3.93,1.68 5.36,2.91 1.42,1.22 2.61,2.98 3.54,5.19 0.93,2.21 1.42,4.89 1.42,8 0,13.39 1.75,62.32 -1.42,69.96 -0.93,2.24 -2.12,3.97 -3.54,5.19 -1.42,1.22 -3.21,2.18 -5.36,2.91 -2.18,0.69 -4.16,1.16 -5.98,1.36 -1.79,0.2 -3.9,0.3 -6.28,0.3l-25.7 0c-9.06,0 -16.82,4.78 -20.91,12.86l-7.25 14.35 65.1 0c13.03,0 23.05,-3.73 29.99,-11.17 6.94,-7.47 10.38,-16.96 10.38,-28.44l0 -72.64c0,-5.56 -0.83,-10.71 -2.51,-15.47 -1.66,-4.73 -4.13,-8.93 -7.41,-12.6 -3.24,-3.64 -7.47,-6.48 -12.7,-8.56 -5.19,-2.05 -11.11,-3.11 -17.76,-3.11l-42.25 0c-6.65,0 -12.6,1.06 -17.92,3.11 -5.29,2.08 -9.62,4.93 -12.96,8.56 -3.37,3.67 -5.92,7.87 -7.67,12.66 -1.72,4.76 -2.61,9.92 -2.61,15.41l0 23.04c0,5.56 0.86,10.71 2.55,15.44 1.65,4.76 4.13,8.96 7.4,12.6 3.24,3.64 7.48,6.51 12.66,8.56 5.23,2.08 11.15,3.11 17.79,3.11l23.05 0c12.91,0 23.43,-10.52 23.43,-23.43l0 -3.88 -35.24 0z"/>
    <path fill="#373435" d="M42.74 776.59l-6.15 -0.16 -0.1 116.89c-0.01,12.91 10.52,23.45 23.43,23.45l5.62 0 0 -116.75c0,-12.69 -10.12,-23.09 -22.8,-23.43z"/>
    <path fill="#373435" d="M179.74 776.59l6.15 -0.16 0.1 116.89c0.01,12.91 -10.52,23.45 -23.43,23.45l-5.61 0 -0.01 -116.75c0,-12.69 10.12,-23.09 22.81,-23.43z"/>
    <path fill="#373435" d="M110.71 916.77l-36.53 -55.59c-2.62,-3.99 -3.85,-8.09 -3.85,-12.87l0 -44.5 40.38 61.45 40.38 -61.45 0 44.5c0,4.78 -1.23,8.87 -3.85,12.87l-36.53 55.59z"/>
    <path fill="#373435" d="M249.38 781.33l-16.09 15.93c-0.92,0.9 -2.39,0.9 -3.3,0.01 -5.41,-5.31 -10.81,-10.63 -16.21,-15.94 -0.47,-0.45 -0.7,-1.02 -0.7,-1.67 -0.01,-0.65 0.23,-1.21 0.69,-1.67l16.22 -16.03c0.91,-0.9 2.39,-0.9 3.30,0.01 5.36,5.34 10.73,10.69 16.09,16.03 0.46,0.46 0.69,1.02 0.69,1.67 0,0.65 -0.24,1.2 -0.69,1.66z"/>
    <path fill="#373435" d="M217.09 916.77l5.53 0c12.91,0 23.43,-10.52 23.43,-23.43l0 -79.3 -5.53 0c-12.91,0 -23.43,10.52 -23.43,23.43l0 79.3z"/>
    <path fill="#373435" d="M587.31 776.42l-1.42 0 0 112.68c0,15.24 12.43,27.66 27.66,27.66l1.42 0 0 -112.68c0,-15.24 -12.43,-27.66 -27.66,-27.66z"/>
    <path fill="#373435" d="M726.03 776.42l1.42 0 0 112.68c0,15.24 -12.43,27.66 -27.66,27.66l-1.42 0 0 -112.68c0,-15.24 12.43,-27.66 27.66,-27.66z"/>
    <rect fill="#373435" transform="matrix(1.41453E-14 -1.35666 0.536346 0.527202 619.03 842.359)" width="29.08" height="140.34"/>
  </symbol>
</svg>