<svg xmlns="http://www.w3.org/2000/svg" viewBox="0 0 450.1 347.25" width="23.1702mm" height="17.8755mm">
  <path fill="#ffffffff" d="M211.2 341.57l-13.74-13.73 233.23-233.23 13.73 13.73c7.57 7.57 7.57 19.9 0 27.47l-205.76 205.76c-7.57 7.57-19.91 7.57-27.47 0zm89.24-322.22l13.74-13.74c7.56-7.57 20.01-7.47 27.69 0.22l88.8 88.8-27.47 27.47-102.76-102.76z"/>
  <path fill="#ffffffff" d="M215.53 290.98l-31.91 8.99c-6.95 1.96-13.9 0.15-19-4.96L5.68 136.07c-7.57-7.57-7.56-19.91 0-27.47l13.73-13.74 89.02-89.02c7.57-7.57 19.9-7.57 27.47 0l13.74 13.73-102.76 102.76-27.47-27.47 196.12 196.12z"/>
  <path fill="#ffffffff" d="M145.3 174.48l-65.92-65.92 31.91-8.99c6.95-1.96 13.9-0.14 19 4.96l42.48 42.48 27.47 27.47-41.24 41.24-27.47-27.47 13.76-13.76z"/>
  <path fill="#ffffffff" d="M182.45 52.38l135.87 135.87-31.91 8.99c-6.95 1.96-13.9 0.14-19-4.96L131.54 56.41l31.91-8.99c6.95-1.96 13.9-0.15 19 4.96z"/>
  <path fill="#ffffffff" d="M304.78 69.95l65.92 65.92-31.91 8.99c-6.95 1.96-13.9 0.14-19.01-4.96l-42.47-42.48-13.74-13.74c-7.57-7.57-7.57-19.91 0-27.47l27.5-27.5 27.47 27.47-13.76 13.77z"/>
</svg>